<?xml version="1.0" encoding="utf-8"?>
<!-- Generator: Adobe Illustrator 16.0.0, SVG Export Plug-In . SVG Version: 6.00 Build 0)  -->
<!DOCTYPE svg PUBLIC "-//W3C//DTD SVG 1.1//EN" "http://www.w3.org/Graphics/SVG/1.1/DTD/svg11.dtd">
<svg version="1.1" id="Layer_1" xmlns="http://www.w3.org/2000/svg" xmlns:xlink="http://www.w3.org/1999/xlink" x="0px" y="0px"
	 width="30px" height="30px" viewBox="0 0 30 30" enable-background="new 0 0 30 30" xml:space="preserve">
<g id="Bounding_Boxes">
	<g id="ui_x5F_spec_x5F_header_copy_3" display="none">
	</g>
	<path fill="none" d="M0,0h30v30H0V0z"/>
</g>
<g>
	<g id="Outline">
		<g id="ui_x5F_spec_x5F_header" display="none">
		</g>
	</g>
	<path d="M23.82,21.84c0.26,0.26,0.42,0.62,0.42,1.021c0,0.37-0.141,0.71-0.38,0.96c-0.03,0.04-0.061,0.069-0.091,0.1
		c-0.26,0.23-0.6,0.37-0.97,0.37c-0.229,0-0.45-0.05-0.64-0.15l-0.65-0.649L15,16.98l-6.55,6.55l-0.6,0.6
		c-0.2,0.11-0.42,0.17-0.66,0.17c-0.32,0-0.62-0.109-0.86-0.29l-0.29-0.29c-0.18-0.239-0.29-0.54-0.29-0.859
		c0-0.351,0.12-0.66,0.33-0.91c0.01-0.021,0.02-0.04,0.05-0.05L6.22,21.8l6.8-6.8L5.99,7.97c-0.15-0.23-0.24-0.5-0.24-0.8
		c0-0.4,0.16-0.76,0.42-1.02c0.26-0.26,0.62-0.42,1.02-0.42c0.26,0,0.5,0.07,0.71,0.19l7.1,7.1l6.61-6.61l0.46-0.46
		c0.22-0.14,0.479-0.22,0.76-0.22c0.35,0,0.66,0.12,0.91,0.33l0.2,0.2c0.21,0.24,0.329,0.56,0.329,0.91c0,0.29-0.09,0.56-0.239,0.78
		c0,0.01,0,0.01-0.011,0.02l-0.39,0.39c0,0-0.01,0-0.02,0.01L16.98,15L23.82,21.84z"/>
</g>
</svg>
