<?xml version="1.0" encoding="utf-8"?>
<!-- Generator: Adobe Illustrator 16.0.0, SVG Export Plug-In . SVG Version: 6.00 Build 0)  -->
<!DOCTYPE svg PUBLIC "-//W3C//DTD SVG 1.1//EN" "http://www.w3.org/Graphics/SVG/1.1/DTD/svg11.dtd">
<svg version="1.1" id="Layer_1" xmlns="http://www.w3.org/2000/svg" xmlns:xlink="http://www.w3.org/1999/xlink" x="0px" y="0px"
	 width="1280px" height="800px" viewBox="0 0 1280 800" enable-background="new 0 0 1280 800" xml:space="preserve">
<g id="Bounding_Boxes">
	<g id="ui_x5F_spec_x5F_header_copy_3" display="none">
	</g>
	<path fill="none" d="M676.747,255.655h316.697v316.699H676.747V255.655z"/>
</g>
<g>
	<g id="Outline">
		<g id="ui_x5F_spec_x5F_header" display="none">
		</g>
	</g>
	<path stroke="#000000" stroke-width="3" stroke-miterlimit="10" d="M977.584,499.72c3.266,3.258,5.278,7.771,5.278,12.801
		c0,4.627-1.768,8.885-4.787,12.018c-0.366,0.515-0.761,0.884-1.128,1.261c-3.276,2.879-7.549,4.639-12.197,4.639
		c-2.871,0-5.646-0.623-8.038-1.883l-8.175-8.129l-81.783-81.603l-82.303,82.066l-7.541,7.526c-2.514,1.386-5.276,2.132-8.293,2.132
		c-4.02,0-7.792-1.359-10.806-3.638l-3.646-3.621c-2.264-3.012-3.644-6.78-3.644-10.77c0-4.406,1.508-8.273,4.147-11.406
		c0.12-0.27,0.249-0.502,0.625-0.635l1.135-1.262l85.442-85.216l-88.333-88.088c-1.891-2.888-3.018-6.267-3.018-10.036
		c0-5.019,2.011-9.521,5.275-12.776c3.271-3.257,7.791-5.262,12.817-5.262c3.269,0,6.281,0.868,8.92,2.373l89.216,88.971
		l83.051-82.826l5.791-5.765c2.76-1.75,6.014-2.753,9.548-2.753c4.394,0,8.295,1.493,11.437,4.137l2.503,2.495
		c2.651,3.011,4.149,7.025,4.149,11.406c0,3.636-1.132,7.026-3.021,9.779c0,0.121,0,0.121-0.121,0.257l-4.907,4.871
		c0,0-0.124,0-0.248,0.132l-83.294,83.085L977.584,499.72z"/>
</g>
<g id="Outline_1_">
	<g id="ui_x5F_spec_x5F_header_copy_4">
	</g>
	<path stroke="#000000" stroke-width="5" stroke-miterlimit="10" d="M446.839,306.922c59.03,0,107.081,48.051,107.081,107.082
		c0,59.032-48.051,107.078-107.081,107.078c-59.031,0-107.081-48.047-107.081-107.078
		C339.758,354.973,387.808,306.922,446.839,306.922 M446.839,280.159c-73.874,0-133.844,59.962-133.844,133.844
		s59.956,133.845,133.844,133.845c73.881,0,133.843-59.963,133.843-133.845C580.682,340.122,520.719,280.159,446.839,280.159
		L446.839,280.159z"/>
</g>
</svg>
